<?xml version="1.0" encoding="UTF-8"?>
<svg id="Layer_2" data-name="Layer 2" xmlns="http://www.w3.org/2000/svg" viewBox="0 0 354.96 307.02">
  <defs>
    <style>
      .cls-1 {
        fill: #0daea8;
      }

      .cls-1, .cls-2, .cls-3 {
        stroke-width: 0px;
      }

      .cls-2 {
        fill: #2e2e2e;
      }

      .cls-3 {
        fill: #00918a;
      }
    </style>
  </defs>
  <g id="Layer_1-2" data-name="Layer 1">
    <path id="Path_1" data-name="Path 1" class="cls-3" d="m31.4,219.46l-18.27-21.77-10.04-11.96c-4.12-4.91-4.12-14.73,0-19.63l10.04-11.96,73.55-87.65c4.23-5.04,13.49-5.85,18.52-1.62l1.31,1.1c5.04,4.23,5.85,13.49,1.62,18.52l-74.19,88.41c-1.27,1.51-1.27,4.53,0,6.04l15.73,18.75,18.28,21.78,2.69,3.21c4.23,5.04,3.42,14.3-1.62,18.52l-1.31,1.1c-5.04,4.23-14.3,3.42-18.52-1.62l-17.8-21.21Z"/>
    <path id="Path_1-2" data-name="Path 1" class="cls-3" d="m323.57,87.56l18.27,21.77,10.04,11.96c4.12,4.91,4.12,14.73,0,19.63l-10.04,11.96-73.55,87.65c-4.23,5.04-13.49,5.85-18.52,1.62l-1.31-1.1c-5.04-4.23-5.85-13.49-1.62-18.52l74.19-88.41c1.27-1.51,1.27-4.53,0-6.04l-15.73-18.75-18.28-21.78-2.69-3.21c-4.23-5.04-3.42-14.3,1.62-18.52l1.31-1.1c5.04-4.23,14.3-3.42,18.52,1.62l17.8,21.21Z"/>
    <path id="Path_1-3" data-name="Path 1" class="cls-1" d="m338.06,113.83c2.22-2.64,2.01-6.61-.14-9.16l3.92,4.67,10.04,11.96c4.12,4.91,4.12,14.73,0,19.63l-10.04,11.96-73.55,87.65c-4.23,5.04-13.49,5.85-18.52,1.62l-1.31-1.1c-5.04-4.23-5.85-13.49-1.62-18.52l64.69-77.1,9.5-11.32,17.04-20.3Z"/>
    <path id="Path_1-4" data-name="Path 1" class="cls-1" d="m16.9,193.19c-2.22,2.64-2.01,6.61.14,9.16l-3.92-4.67-10.04-11.96c-4.12-4.91-4.12-14.73,0-19.63l10.04-11.96,73.55-87.65c4.23-5.04,13.49-5.85,18.52-1.62l1.31,1.1c5.04,4.23,5.85,13.49,1.62,18.52l-64.69,77.1-9.5,11.32-17.04,20.3Z"/>
    <path id="Path_1-5" data-name="Path 1" class="cls-1" d="m81.93,245.52l25.64-30.56,9-10.72L236.34,61.51l48.03-57.24c4.15-4.95,13.26-5.75,18.21-1.59l1.65,1.38c4.95,4.15,5.75,13.26,1.59,18.21l-32.92,39.24-115.38,137.51-9,10.72-78.05,93.02c-4.15,4.95-13.26,5.75-18.21,1.59l-1.65-1.38c-4.95-4.15-5.75-13.26-1.59-18.21l32.92-39.24Z"/>
    <path id="Path_1-6" data-name="Path 1" class="cls-2" d="m154.57,72c5.53-6.59,13.46-9.99,21.44-9.99,6.36,0,12.75,2.15,18,6.55,2.2,1.84,4.04,3.96,5.52,6.24-5.14-1.44-10.87.13-14.52,4.48l-27,32.17-72.06,85.88c-4.15,4.95-13.26,5.75-18.21,1.59l-1.65-1.38c-4.95-4.15-5.75-13.26-1.59-18.21l90.07-107.34Z"/>
    <path id="Path_1-7" data-name="Path 1" class="cls-2" d="m195.53,240.99c-4.15,4.95-13.26,5.75-18.21,1.59l-1.65-1.38c-4.95-4.15-5.75-13.26-1.59-18.21l67.76-80.76,27-32.17c3.65-4.35,4.2-10.27,1.89-15.08,2.51,1.06,4.91,2.51,7.11,4.35,11.85,9.94,13.39,27.6,3.45,39.45l-85.76,102.2Z"/>
  </g>
</svg>
<svg width="200" height="200" xmlns="http://www.w3.org/2000/svg" version="1.1">
  <!-- Background kotak dengan warna -->
  <rect width="200" height="200" fill="#ccc" />
  
  <!-- Lingkaran di tengah -->
  <circle cx="100" cy="100" r="80" stroke="#333" stroke-width="4" fill="#fff" />
  
  <!-- Teks sebagai penanda -->
  <text x="50%" y="50%" font-size="24" fill="#333" text-anchor="middle" alignment-baseline="middle" font-family="Arial">
    Placeholder
  </text>
</svg>
